<svg xmlns="http://www.w3.org/2000/svg" viewBox="0 0 1200 600" role="img" aria-labelledby="title desc">
<title id="title">Three fictional villa concept organisations</title>
<desc id="desc">North is up. Southern road and northern garden. Garden bar has a private bypass hall. Courtyard surrounds an outdoor room. Pavilions force bedroom access through living. Diagrams are not dimensioned plans.</desc>
<rect width="1200" height="600" fill="#f6f3ec"/>
<g font-family="Arial,sans-serif" fill="#27382f">
<text x="35" y="40" font-size="26">Fictional villa — spatial alternatives</text>
<text x="35" y="69" font-size="16">North is up • road to south • diagrams are not to scale • no design gate approved</text>
<g stroke="#526b59" stroke-width="2">
<rect x="35" y="120" width="345" height="340" fill="#e3eadc"/>
<rect x="425" y="120" width="345" height="340" fill="#e3eadc"/>
<rect x="815" y="120" width="345" height="340" fill="#e3eadc"/>
<rect x="70" y="245" width="275" height="80" fill="#d7c5a8"/>
<rect x="70" y="325" width="275" height="35" fill="#faf7ef"/>
<rect x="70" y="360" width="100" height="65" fill="#bdc8d4"/>
<rect x="170" y="360" width="60" height="65" fill="#faf7ef"/>
<rect id="garden-bar-private" x="230" y="360" width="115" height="65" fill="#d6bfb5"/>
<path d="M460 225H735V425H460Z M525 285V365H670V285Z" fill="#d7c5a8" fill-rule="evenodd"/>
<rect x="850" y="230" width="125" height="100" fill="#d6bfb5"/>
<rect x="1010" y="300" width="120" height="125" fill="#d7c5a8"/>
<rect x="945" y="330" width="65" height="30" fill="#faf7ef"/>
</g>
<g font-size="17">
<text x="55" y="105">Garden bar</text><text x="445" y="105">Courtyard</text><text x="835" y="105">Pavilions</text>
<text x="100" y="178">Main garden and terrace</text><text x="116" y="290">Living / dining</text>
<text x="80" y="338" font-size="12">Private bypass hall</text><text x="81" y="400">Service</text><text x="174" y="375" font-size="10">Entry</text><text x="240" y="418" font-size="13">Guest / private</text>
<text x="550" y="327">Court</text><text x="485" y="256">Rooms around garden</text>
<text x="868" y="284">Sleeping</text><text x="1020" y="371">Living</text>
<text x="88" y="485">Southern arrival</text><text x="488" y="485">Southern arrival</text><text x="973" y="485">Arrival</text>
</g>
<g fill="none" stroke-width="4">
<polyline id="garden-bar-arrival" points="200,460 200,342 280,342 280,395" stroke="#456652"/>
<path d="M600 460V398H493V320" stroke="#456652"/>
<path d="M1070 460V346H920V303" stroke="#a44838"/>
</g>
<g font-size="15">
<text x="40" y="526">Separate sleep route; lintel and shade unresolved.</text>
<text x="430" y="526">Sheltered court; more envelope and junctions.</text>
<text x="820" y="526">Sleep route crosses living; glare and span open.</text>
<text x="35" y="568">Green routes preserve the pilot's privacy intent. Red route fails it. Structure and comfort still need coordinated drawings and assessment.</text>
</g></g></svg>
